<svg width="74" height="66" viewBox="0 0 74 66" fill="none" xmlns="http://www.w3.org/2000/svg">
<path d="M10.5 0L37.5 45.5L62.5 0H10.5Z" fill="#BEF264"/>
<path d="M47.7969 13.6328C47.7891 14.8047 47.6602 15.75 47.4102 16.4688C47.1602 17.1875 46.7734 17.7109 46.25 18.0391C45.7344 18.3672 45.0781 18.5312 44.2812 18.5312H40.6367C40.1055 18.5312 39.6797 18.6445 39.3594 18.8711C39.0391 19.0977 38.8047 19.4297 38.6562 19.8672C38.5078 20.3047 38.4336 20.8438 38.4336 21.4844H36.2188C36.2188 20.8438 36.1484 20.3047 36.0078 19.8672C35.8594 19.4297 35.625 19.0977 35.3047 18.8711C34.9766 18.6445 34.5508 18.5312 34.0273 18.5312H30.3594C29.5547 18.5312 28.8945 18.3633 28.3789 18.0273C27.8633 17.6914 27.4844 17.1641 27.2422 16.4453C26.9922 15.7188 26.8672 14.7812 26.8672 13.6328H28.9766C28.9922 14.1328 29.0625 14.5625 29.1875 14.9219C29.3125 15.2812 29.5195 15.5547 29.8086 15.7422C30.0898 15.9297 30.4766 16.0234 30.9688 16.0234H34.4844C35.2578 16.0234 35.875 16.2461 36.3359 16.6914C36.7969 17.1289 37.1016 17.7852 37.25 18.6602H37.3906C37.5234 17.7773 37.8242 17.1172 38.293 16.6797C38.7539 16.2422 39.3711 16.0234 40.1445 16.0234H43.6953C44.1875 16.0234 44.5742 15.9297 44.8555 15.7422C45.1445 15.5547 45.3477 15.2813 45.4648 14.9219C45.5898 14.5625 45.6562 14.1328 45.6641 13.6328H47.7969Z" fill="black"/>
<path d="M1.125 54.125L9.71484 50.5391L1.125 46.5078V44.2344L12.5742 49.9297V51.3242L1.125 56.3867V54.125Z" fill="#BEF264"/>
<path d="M72.875 54.125L64.2852 50.5391L72.875 46.5078V44.2344L61.4258 49.9297V51.3242L72.875 56.3867V54.125Z" fill="#BEF264"/>
<path d="M41.085 52.8721H37.5693V54.4365H41.085V57.9873H42.6494V54.4365H46.1562V52.8721H42.6494V49.2861H41.085V52.8721ZM30.7842 52.8721H27.2686V54.4365H30.7842V57.9873H32.3486V54.4365H35.8555V52.8721H32.3486V49.2861H30.7842V52.8721Z" fill="#BEF264"/>
</svg>
